<svg width="24" height="25" viewBox="0 0 24 25" fill="none" xmlns="http://www.w3.org/2000/svg">
<path d="M18 8.90863C18 7.31733 17.3679 5.79121 16.2426 4.66599C15.1174 3.54077 13.5913 2.90863 12 2.90863C10.4087 2.90863 8.88258 3.54077 7.75736 4.66599C6.63214 5.79121 6 7.31733 6 8.90863C6 15.9086 3 17.9086 3 17.9086H21C21 17.9086 18 15.9086 18 8.90863Z" stroke="white" stroke-width="2" stroke-linecap="round" stroke-linejoin="round"/>
<path d="M13.73 21.9086C13.5542 22.2117 13.3019 22.4633 12.9982 22.6382C12.6946 22.813 12.3504 22.9051 12 22.9051C11.6496 22.9051 11.3054 22.813 11.0018 22.6382C10.6982 22.4633 10.4458 22.2117 10.27 21.9086" stroke="white" stroke-width="2" stroke-linecap="round" stroke-linejoin="round"/>
</svg>
