<svg width="1440" height="286" viewBox="0 0 1440 286" fill="none" xmlns="http://www.w3.org/2000/svg">
<path d="M-38.7366 56.8746V171.487C-38.7366 178.823 -35.3746 181.573 -31.4014 181.573C-27.7338 181.573 -24.3718 178.823 -24.3718 171.487V119.835H24.5296V167.82C24.5296 204.496 2.82961 224.056 -32.3183 224.056C-67.1606 224.056 -87.638 205.107 -87.638 167.82V60.2366C-87.638 22.9492 -67.1606 4.30554 -32.3183 4.30554C2.82961 4.30554 24.5296 23.8661 24.5296 60.2366V108.527H-24.3718V56.8746C-24.3718 49.2337 -27.7338 46.483 -31.4014 46.483C-35.3746 46.483 -38.7366 49.2337 -38.7366 56.8746ZM30.8476 114.334C30.8476 83.7704 48.5744 62.0704 82.8054 62.0704C117.036 62.0704 135.68 84.076 135.68 114.334V172.099C135.68 202.051 117.036 224.056 82.8054 224.056C48.5744 224.056 30.8476 202.356 30.8476 172.099V114.334ZM76.9984 111.583V174.544C76.9984 180.656 79.4434 184.324 83.4167 184.324C87.0843 184.324 89.5294 180.656 89.5294 174.544V111.583C89.5294 105.165 87.0843 101.803 83.4167 101.803C79.4434 101.803 76.9984 105.165 76.9984 111.583ZM142.788 221V0.943575H188.939V221H142.788ZM195.916 221V0.943575H242.067V221H195.916ZM307.114 111.583C307.114 105.47 304.669 101.803 301.002 101.803C297.334 101.803 294.889 105.47 294.889 111.583V131.144H248.738V114.334C248.738 81.9366 268.299 62.0704 300.39 62.0704C332.788 62.0704 353.265 82.2422 353.265 114.334V221H307.114V207.858H305.892C297.945 218.861 288.165 224.056 277.468 224.056C260.352 224.056 248.433 210.914 248.433 191.965V169.348C248.433 150.399 263.103 136.951 283.275 136.951H307.114V111.583ZM307.114 182.796V159.568H302.53C297.334 159.568 294.583 161.707 294.583 166.292V181.268C294.583 185.546 296.723 188.297 300.085 188.297C303.141 188.297 305.586 186.158 307.114 182.796ZM360.068 221V0.943575H406.219V80.1028L409.581 80.4084C415.388 68.183 424.862 62.0704 436.476 62.0704C453.592 62.0704 464.9 75.2126 464.9 100.58V180.962C464.9 207.246 453.286 224.056 435.254 224.056C424.557 224.056 414.776 217.944 409.581 205.718H406.219V221H360.068ZM406.219 108.221V177.906C407.441 181.268 410.192 183.407 412.943 183.407C416.305 183.407 418.75 180.045 418.75 175.461V110.055C418.75 105.776 416.305 102.72 413.248 102.72C410.192 102.72 407.441 104.859 406.219 108.221ZM471.092 114.334C471.092 83.7704 488.819 62.0704 523.05 62.0704C557.281 62.0704 575.924 84.076 575.924 114.334V172.099C575.924 202.051 557.281 224.056 523.05 224.056C488.819 224.056 471.092 202.356 471.092 172.099V114.334ZM517.243 111.583V174.544C517.243 180.656 519.688 184.324 523.661 184.324C527.328 184.324 529.774 180.656 529.774 174.544V111.583C529.774 105.165 527.328 101.803 523.661 101.803C519.688 101.803 517.243 105.165 517.243 111.583ZM628.878 65.1267V86.8267H630.1C634.685 72.4619 644.465 62.0704 659.135 62.0704C660.358 62.0704 661.886 62.0704 663.414 62.376V108.221C660.664 107.915 657.913 107.61 655.162 107.61C636.824 107.61 628.878 118.307 628.878 137.562V221H582.727V65.1267H628.878ZM726.764 111.583C726.764 105.47 724.319 101.803 720.651 101.803C716.984 101.803 714.539 105.47 714.539 111.583V131.144H668.388V114.334C668.388 81.9366 687.949 62.0704 720.04 62.0704C752.437 62.0704 772.915 82.2422 772.915 114.334V221H726.764V207.858H725.542C717.595 218.861 707.815 224.056 697.118 224.056C680.002 224.056 668.082 210.914 668.082 191.965V169.348C668.082 150.399 682.753 136.951 702.925 136.951H726.764V111.583ZM726.764 182.796V159.568H722.18C716.984 159.568 714.233 161.707 714.233 166.292V181.268C714.233 185.546 716.373 188.297 719.735 188.297C722.791 188.297 725.236 186.158 726.764 182.796ZM776.363 104.859V65.1267H789.505V31.507L835.656 28.7563V65.1267H859.495V104.859H835.656V169.042C835.656 179.434 842.685 182.796 850.326 182.796C853.383 182.796 856.439 182.49 859.495 181.573L859.801 221.306C850.632 223.139 842.074 224.056 834.128 224.056C807.232 224.056 789.505 211.525 789.505 171.487V104.859H776.363ZM910.03 154.066V174.544C910.03 180.656 912.475 184.324 916.142 184.324C920.116 184.324 922.561 180.656 922.561 174.544V161.707H968.712V171.793C968.712 203.885 947.928 224.056 915.531 224.056C883.44 224.056 863.879 204.19 863.879 171.793V114.028C863.879 81.9366 883.44 62.0704 915.531 62.0704C947.928 62.0704 968.712 82.2422 968.712 114.028V154.066H910.03ZM910.03 111.583V129.31H922.561V111.583C922.561 105.47 920.116 101.803 916.142 101.803C912.475 101.803 910.03 105.47 910.03 111.583ZM975.521 197.161C975.521 180.962 983.774 172.099 999.667 172.099C1014.95 172.099 1023.51 181.268 1023.51 197.466C1023.51 213.665 1015.25 222.528 999.667 222.528C983.774 222.528 975.521 213.665 975.521 197.161ZM1081.18 7.05625H1130.08V178.517H1160.03V221H1081.18V7.05625ZM1209.4 154.066V174.544C1209.4 180.656 1211.84 184.324 1215.51 184.324C1219.48 184.324 1221.93 180.656 1221.93 174.544V161.707H1268.08V171.793C1268.08 203.885 1247.29 224.056 1214.9 224.056C1182.81 224.056 1163.25 204.19 1163.25 171.793V114.028C1163.25 81.9366 1182.81 62.0704 1214.9 62.0704C1247.29 62.0704 1268.08 82.2422 1268.08 114.028V154.066H1209.4ZM1209.4 111.583V129.31H1221.93V111.583C1221.93 105.47 1219.48 101.803 1215.51 101.803C1211.84 101.803 1209.4 105.47 1209.4 111.583ZM1333.26 111.583C1333.26 105.47 1330.81 101.803 1327.14 101.803C1323.48 101.803 1321.03 105.47 1321.03 111.583V131.144H1274.88V114.334C1274.88 81.9366 1294.44 62.0704 1326.53 62.0704C1358.93 62.0704 1379.41 82.2422 1379.41 114.334V221H1333.26V207.858H1332.03C1324.09 218.861 1314.31 224.056 1303.61 224.056C1286.49 224.056 1274.57 210.914 1274.57 191.965V169.348C1274.57 150.399 1289.25 136.951 1309.42 136.951H1333.26V111.583ZM1333.26 182.796V159.568H1328.67C1323.48 159.568 1320.73 161.707 1320.73 166.292V181.268C1320.73 185.546 1322.86 188.297 1326.23 188.297C1329.28 188.297 1331.73 186.158 1333.26 182.796ZM1490.74 221H1444.59V205.718H1441.22C1435.11 217.638 1425.64 224.056 1416.16 224.056C1400.57 224.056 1385.9 207.858 1385.9 176.989V99.3577C1385.9 73.6844 1399.96 62.0704 1414.63 62.0704C1425.64 62.0704 1436.64 68.4887 1441.22 80.1028H1444.59V0.943575H1490.74V221ZM1444.59 177.6V107.61C1443.36 104.553 1440.61 102.72 1437.86 102.72C1434.5 102.72 1432.05 105.776 1432.05 110.055V175.155C1432.05 179.739 1434.5 183.101 1437.86 183.101C1440.61 183.101 1443.36 180.962 1444.59 177.6ZM1498.14 197.161C1498.14 180.962 1506.4 172.099 1522.29 172.099C1537.57 172.099 1546.13 181.268 1546.13 197.466C1546.13 213.665 1537.88 222.528 1522.29 222.528C1506.4 222.528 1498.14 213.665 1498.14 197.161ZM1603.8 7.05625H1657.9C1693.96 7.05625 1714.44 25.6999 1714.44 59.6253V61.1535C1714.44 92.6338 1697.94 109.138 1683.57 110.055V113.417C1697.63 114.028 1718.11 133.283 1718.11 164.458V168.125C1718.11 201.439 1695.49 221 1658.2 221H1603.8V7.05625ZM1652.7 49.2337V90.4943H1657.29C1663.71 90.4943 1665.54 87.7436 1665.54 80.1028V59.6253C1665.54 51.9844 1663.71 49.2337 1657.29 49.2337H1652.7ZM1652.7 132.977V178.517H1657.9C1664.32 178.517 1666.46 176.072 1666.46 168.125V143.369C1666.46 135.728 1664.32 132.977 1657.59 132.977H1652.7ZM1769.33 154.066V174.544C1769.33 180.656 1771.77 184.324 1775.44 184.324C1779.41 184.324 1781.86 180.656 1781.86 174.544V161.707H1828.01V171.793C1828.01 203.885 1807.23 224.056 1774.83 224.056C1742.74 224.056 1723.18 204.19 1723.18 171.793V114.028C1723.18 81.9366 1742.74 62.0704 1774.83 62.0704C1807.23 62.0704 1828.01 82.2422 1828.01 114.028V154.066H1769.33ZM1769.33 111.583V129.31H1781.86V111.583C1781.86 105.47 1779.41 101.803 1775.44 101.803C1771.77 101.803 1769.33 105.47 1769.33 111.583ZM1835.12 221V0.943575H1881.27V221H1835.12ZM1887.63 114.334C1887.63 83.7704 1905.36 62.0704 1939.59 62.0704C1973.82 62.0704 1992.47 84.076 1992.47 114.334V172.099C1992.47 202.051 1973.82 224.056 1939.59 224.056C1905.36 224.056 1887.63 202.356 1887.63 172.099V114.334ZM1933.78 111.583V174.544C1933.78 180.656 1936.23 184.324 1940.2 184.324C1943.87 184.324 1946.32 180.656 1946.32 174.544V111.583C1946.32 105.165 1943.87 101.803 1940.2 101.803C1936.23 101.803 1933.78 105.165 1933.78 111.583ZM1999.27 221V65.1267H2045.72V80.714H2048.78C2054.89 68.183 2063.76 62.0704 2075.07 62.0704C2090.96 62.0704 2104.1 74.6013 2104.1 103.331V221H2057.95V110.055C2057.95 105.47 2055.81 102.414 2052.45 102.414C2049.7 102.414 2047.25 104.553 2045.72 107.915V221H1999.27ZM2215.12 65.1267V238.421C2215.12 268.068 2196.18 285.183 2163.17 285.183C2130.16 285.183 2110.6 267.762 2110.6 238.421V229.863H2156.75V235.976C2156.75 242.089 2159.19 245.451 2162.86 245.451C2166.53 245.451 2168.97 241.783 2168.97 235.365V205.413H2165.61C2160.11 217.638 2150.64 224.056 2139.94 224.056C2121.91 224.056 2110.29 207.246 2110.29 180.962V103.331C2110.29 77.6577 2121.3 62.0704 2139.33 62.0704C2150.33 62.0704 2159.81 68.183 2165.61 80.714H2168.97V65.1267H2215.12ZM2168.97 109.138C2167.45 105.47 2164.7 102.72 2161.94 102.72C2158.89 102.72 2156.44 106.082 2156.44 110.666V174.544C2156.44 179.739 2158.89 183.407 2161.94 183.407C2164.7 183.407 2167.45 180.962 2168.97 176.989V109.138ZM2225.22 197.161C2225.22 180.962 2233.47 172.099 2249.36 172.099C2264.64 172.099 2273.2 181.268 2273.2 197.466C2273.2 213.665 2264.95 222.528 2249.36 222.528C2233.47 222.528 2225.22 213.665 2225.22 197.161Z" fill="black"/>
</svg>
