<svg width="24" height="23" viewBox="0 0 24 23" fill="none" xmlns="http://www.w3.org/2000/svg">
<path d="M12.21 16.0415V17.9897" stroke="#292D32" stroke-width="1.39156" stroke-linecap="round" stroke-linejoin="round"/>
<path d="M7.57129 21.1439H16.8484V20.2162C16.8484 19.1957 16.0134 18.3608 14.9929 18.3608H9.4267C8.40622 18.3608 7.57129 19.1957 7.57129 20.2162V21.1439V21.1439Z" stroke="#292D32" stroke-width="1.39156" stroke-miterlimit="10"/>
<path d="M6.64355 21.1439H17.776" stroke="#292D32" stroke-width="1.39156" stroke-linecap="round" stroke-linejoin="round"/>
<path d="M12.0711 15.5776C8.48087 15.5776 5.57715 12.6739 5.57715 9.0837V6.30058C5.57715 4.25035 7.23774 2.58975 9.28798 2.58975H14.8542C16.9044 2.58975 18.565 4.25035 18.565 6.30058V9.0837C18.565 12.6739 15.6613 15.5776 12.0711 15.5776Z" stroke="#292D32" stroke-width="1.39156" stroke-linecap="round" stroke-linejoin="round"/>
<path d="M6.01309 11.5421C5.31731 11.3195 4.70502 10.9113 4.22261 10.4289C3.38768 9.50117 2.83105 8.38792 2.83105 7.08913C2.83105 5.79034 3.85153 4.76987 5.15032 4.76987H5.75333C5.56779 5.19661 5.47502 5.66974 5.47502 6.16143V8.94455C5.47502 9.87225 5.66984 10.7443 6.01309 11.5421Z" stroke="#292D32" stroke-width="1.39156" stroke-linecap="round" stroke-linejoin="round"/>
<path d="M18.1289 11.5421C18.8247 11.3195 19.437 10.9113 19.9194 10.4289C20.7543 9.50117 21.3109 8.38792 21.3109 7.08913C21.3109 5.79034 20.2905 4.76987 18.9917 4.76987H18.3887C18.5742 5.19661 18.667 5.66974 18.667 6.16143V8.94455C18.667 9.87225 18.4722 10.7443 18.1289 11.5421Z" stroke="#292D32" stroke-width="1.39156" stroke-linecap="round" stroke-linejoin="round"/>
</svg>
