<svg width="20" height="24" viewBox="0 0 20 24" fill="none" xmlns="http://www.w3.org/2000/svg">
<path d="M19.1765 14.7754C15.5947 12.0866 14.6268 7.24252 16.4902 3.27786C16.5965 3.08501 16.6609 2.87217 16.6794 2.65304C16.698 2.43392 16.6701 2.21337 16.5977 2.00558C16.5253 1.7978 16.41 1.60739 16.2591 1.44661C16.1082 1.28583 15.9251 1.15825 15.7216 1.07207C15.1633 0.0917192 13.8655 -0.470542 12.8033 0.517019C9.90217 3.27955 6.06673 4.86345 2.05071 4.95744C0.136569 4.99708 -0.784249 7.32181 0.828998 8.51121C4.54853 11.254 5.96239 16.7036 3.7981 20.8449C3.02592 22.319 4.43251 24.8925 6.28141 23.6886C8.1303 22.4848 9.43178 20.7476 11.0922 19.2626C12.9229 17.6263 15.1561 17.6696 17.44 18.2246C19.539 18.74 20.9892 16.1486 19.1765 14.7754ZM10.8384 14.7754C10.035 15.1538 9.30005 15.6617 8.66321 16.2783C8.62775 13.4334 7.71963 10.667 6.06027 8.34902C8.03342 7.91392 9.92909 7.18484 11.6831 6.18648C11.4574 8.93335 12.0904 11.6825 13.4957 14.0581C12.5701 14.1525 11.6657 14.3934 10.8166 14.7718L10.8384 14.7754Z" fill="white"/>
</svg>
