<svg width="121" height="121" viewBox="0 0 121 121" fill="none" xmlns="http://www.w3.org/2000/svg">
<path d="M89.4836 27.8403V31.5462L71.7553 21.2798C65.0445 17.4236 55.6795 17.4236 49.0189 21.2798L31.2905 31.5963V27.8403C31.2905 16.5722 37.4504 10.3623 48.7184 10.3623H72.0557C83.3238 10.3623 89.4836 16.5722 89.4836 27.8403Z" fill="white" fill-opacity="0.7"/>
<path d="M89.6316 40.2598L88.9305 39.9092L82.1196 36.003L67.997 27.8399C63.6901 25.3359 57.0796 25.3359 52.7727 27.8399L38.6501 35.9529L31.8392 39.9593L30.9377 40.41C22.1737 46.3195 21.5728 47.4212 21.5728 56.8864V79.5226C21.5728 88.9878 22.1737 90.0895 31.1381 96.1492L52.7727 108.619C54.9261 109.921 57.6304 110.472 60.3849 110.472C63.0892 110.472 65.8436 109.871 67.997 108.619L89.832 95.999C98.6461 90.0895 99.197 89.0378 99.197 79.5226V56.8864C99.197 47.4212 98.596 46.3195 89.6316 40.2598ZM74.3572 67.9541L71.3023 71.7101C70.8015 72.261 70.451 73.3127 70.501 74.0639L70.8015 78.8716C71.0018 81.8263 68.8985 83.3287 66.1441 82.277L61.6869 80.4741C60.9858 80.2237 59.834 80.2237 59.1329 80.4741L54.6757 82.2269C51.9213 83.3287 49.8179 81.7762 50.0183 78.8215L50.3187 74.0138C50.3688 73.2626 50.0183 72.2109 49.5175 71.66L46.4125 67.9541C44.5095 65.7005 45.3608 63.1965 48.2154 62.4453L52.8728 61.2434C53.624 61.043 54.4754 60.3419 54.876 59.741L57.4802 55.7346C59.0828 53.2305 61.6369 53.2305 63.2895 55.7346L65.8937 59.741C66.2943 60.392 67.1958 61.043 67.8969 61.2434L72.5543 62.4453C75.4089 63.1965 76.2603 65.7005 74.3572 67.9541Z" fill="white" fill-opacity="0.7"/>
</svg>
