<svg width="37" height="894" viewBox="0 0 37 894" fill="none" xmlns="http://www.w3.org/2000/svg">
<g opacity="0.8">
<g clip-path="url(#clip0_196_27298)">
<path d="M1.5 -6L45.5 16" stroke="white" stroke-width="3"/>
<path d="M1.5 4L45.5 26" stroke="white" stroke-width="3"/>
<path d="M1.5 14L45.5 36" stroke="white" stroke-width="3"/>
<path d="M1.5 24L45.5 46" stroke="white" stroke-width="3"/>
<path d="M1.5 34L45.5 56" stroke="white" stroke-width="3"/>
<path d="M1.5 44L45.5 66" stroke="white" stroke-width="3"/>
<path d="M1.5 54L45.5 76" stroke="white" stroke-width="3"/>
<path d="M1.5 64L45.5 86" stroke="white" stroke-width="3"/>
<path d="M1.5 74L45.5 96" stroke="white" stroke-width="3"/>
<path d="M1.5 84L45.5 106" stroke="white" stroke-width="3"/>
<path d="M1.5 94L45.5 116" stroke="white" stroke-width="3"/>
<path d="M1.5 104L45.5 126" stroke="white" stroke-width="3"/>
<path d="M1.5 114L45.5 136" stroke="white" stroke-width="3"/>
<path d="M1.5 124L45.5 146" stroke="white" stroke-width="3"/>
<path d="M1.5 134L45.5 156" stroke="white" stroke-width="3"/>
<path d="M1.5 144L45.5 166" stroke="white" stroke-width="3"/>
<path d="M1.5 154L45.5 176" stroke="white" stroke-width="3"/>
<path d="M1.5 164L45.5 186" stroke="white" stroke-width="3"/>
<path d="M1.5 174L45.5 196" stroke="white" stroke-width="3"/>
<path d="M1.5 184L45.5 206" stroke="white" stroke-width="3"/>
<path d="M1.5 194L45.5 216" stroke="white" stroke-width="3"/>
<path d="M1.5 204L45.5 226" stroke="white" stroke-width="3"/>
<path d="M1.5 214L45.5 236" stroke="white" stroke-width="3"/>
<path d="M1.5 224L45.5 246" stroke="white" stroke-width="3"/>
<path d="M1.5 234L45.5 256" stroke="white" stroke-width="3"/>
<path d="M1.5 244L45.5 266" stroke="white" stroke-width="3"/>
<path d="M1.5 254L45.5 276" stroke="white" stroke-width="3"/>
<path d="M1.5 264L45.5 286" stroke="white" stroke-width="3"/>
<path d="M1.5 274L45.5 296" stroke="white" stroke-width="3"/>
<path d="M1.5 284L45.5 306" stroke="white" stroke-width="3"/>
<path d="M1.5 294L45.5 316" stroke="white" stroke-width="3"/>
<path d="M1.5 304L45.5 326" stroke="white" stroke-width="3"/>
<path d="M1.5 314L45.5 336" stroke="white" stroke-width="3"/>
<path d="M1.5 324L45.5 346" stroke="white" stroke-width="3"/>
<path d="M1.5 334L45.5 356" stroke="white" stroke-width="3"/>
<path d="M1.5 344L45.5 366" stroke="white" stroke-width="3"/>
<path d="M1.5 354L45.5 376" stroke="white" stroke-width="3"/>
<path d="M1.5 364L45.5 386" stroke="white" stroke-width="3"/>
<path d="M1.5 374L45.5 396" stroke="white" stroke-width="3"/>
<path d="M1.5 384L45.5 406" stroke="white" stroke-width="3"/>
<path d="M1.5 394L45.5 416" stroke="white" stroke-width="3"/>
<path d="M1.5 404L45.5 426" stroke="white" stroke-width="3"/>
<path d="M1.5 414L45.5 436" stroke="white" stroke-width="3"/>
<path d="M1.5 424L45.5 446" stroke="white" stroke-width="3"/>
<path d="M1.5 434L45.5 456" stroke="white" stroke-width="3"/>
<path d="M1.5 444L45.5 466" stroke="white" stroke-width="3"/>
<path d="M1.5 454L45.5 476" stroke="white" stroke-width="3"/>
<path d="M1.5 464L45.5 486" stroke="white" stroke-width="3"/>
<path d="M1.5 474L45.5 496" stroke="white" stroke-width="3"/>
<path d="M1.5 484L45.5 506" stroke="white" stroke-width="3"/>
<path d="M1.5 494L45.5 516" stroke="white" stroke-width="3"/>
<path d="M1.5 504L45.5 526" stroke="white" stroke-width="3"/>
<path d="M1.5 514L45.5 536" stroke="white" stroke-width="3"/>
<path d="M1.5 524L45.5 546" stroke="white" stroke-width="3"/>
<path d="M1.5 534L45.5 556" stroke="white" stroke-width="3"/>
<path d="M1.5 544L45.5 566" stroke="white" stroke-width="3"/>
<path d="M1.5 554L45.5 576" stroke="white" stroke-width="3"/>
<path d="M1.5 564L45.5 586" stroke="white" stroke-width="3"/>
<path d="M1.5 574L45.5 596" stroke="white" stroke-width="3"/>
<path d="M1.5 584L45.5 606" stroke="white" stroke-width="3"/>
<path d="M1.5 594L45.5 616" stroke="white" stroke-width="3"/>
<path d="M1.5 604L45.5 626" stroke="white" stroke-width="3"/>
<path d="M1.5 614L45.5 636" stroke="white" stroke-width="3"/>
<path d="M1.5 624L45.5 646" stroke="white" stroke-width="3"/>
<path d="M1.5 634L45.5 656" stroke="white" stroke-width="3"/>
<path d="M1.5 644L45.5 666" stroke="white" stroke-width="3"/>
<path d="M1.5 654L45.5 676" stroke="white" stroke-width="3"/>
<path d="M1.5 664L45.5 686" stroke="white" stroke-width="3"/>
<path d="M1.5 674L45.5 696" stroke="white" stroke-width="3"/>
<path d="M1.5 684L45.5 706" stroke="white" stroke-width="3"/>
<path d="M1.5 694L45.5 716" stroke="white" stroke-width="3"/>
<path d="M1.5 704L45.5 726" stroke="white" stroke-width="3"/>
<path d="M1.5 714L45.5 736" stroke="white" stroke-width="3"/>
<path d="M1.5 724L45.5 746" stroke="white" stroke-width="3"/>
<path d="M1.5 734L45.5 756" stroke="white" stroke-width="3"/>
<path d="M1.5 744L45.5 766" stroke="white" stroke-width="3"/>
<path d="M1.5 754L45.5 776" stroke="white" stroke-width="3"/>
<path d="M1.5 764L45.5 786" stroke="white" stroke-width="3"/>
<path d="M1.5 774L45.5 796" stroke="white" stroke-width="3"/>
<path d="M1.5 784L45.5 806" stroke="white" stroke-width="3"/>
<path d="M1.5 794L45.5 816" stroke="white" stroke-width="3"/>
<path d="M1.5 804L45.5 826" stroke="white" stroke-width="3"/>
<path d="M1.5 814L45.5 836" stroke="white" stroke-width="3"/>
<path d="M1.5 824L45.5 846" stroke="white" stroke-width="3"/>
<path d="M1.5 834L45.5 856" stroke="white" stroke-width="3"/>
<path d="M1.5 844L45.5 866" stroke="white" stroke-width="3"/>
<path d="M1.5 854L45.5 876" stroke="white" stroke-width="3"/>
<path d="M1.5 864L45.5 886" stroke="white" stroke-width="3"/>
<path d="M1.5 874L45.5 896" stroke="white" stroke-width="3"/>
<path d="M1.5 884L45.5 906" stroke="white" stroke-width="3"/>
<path d="M1.5 894L45.5 916" stroke="white" stroke-width="3"/>
</g>
<rect x="1" y="-2" width="35" height="1232" stroke="white" stroke-width="2"/>
</g>
<defs>
<clipPath id="clip0_196_27298">
<rect y="-3" width="37" height="1234" fill="white"/>
</clipPath>
</defs>
</svg>
