<svg width="44" height="44" viewBox="0 0 44 44" fill="none" xmlns="http://www.w3.org/2000/svg">
<g clip-path="url(#clip0_188_13031)">
<path d="M35.9172 32.8055L24.9492 21.8375L35.9172 10.8695L38.3491 13.3112L31.5458 20.1145H44.0005V23.5605H31.5458L38.3491 30.3638L35.9172 32.8055Z" fill="white"/>
<path d="M23.5601 44.0001H20.1141V31.5454L13.3108 38.3487L10.8691 35.9168L21.8371 24.9488L32.8051 35.9168L30.3634 38.3487L23.5601 31.5454V44.0001Z" fill="white"/>
<path d="M8.08326 33.1206L5.64153 30.6888L12.4547 23.8854H0V20.4395H12.4547L5.64153 13.6263L8.08326 11.1945L19.0414 22.1625L8.08326 33.1206Z" fill="white"/>
<path d="M22.1624 19.0414L11.1943 8.08326L13.6262 5.64153L20.4394 12.4547V0H23.8853V12.4547L30.6886 5.64153L33.1205 8.08326L22.1624 19.0414Z" fill="white"/>
</g>
<defs>
<clipPath id="clip0_188_13031">
<rect width="44" height="44" fill="white"/>
</clipPath>
</defs>
</svg>
