<svg width="137" height="22" viewBox="0 0 137 22" fill="none" xmlns="http://www.w3.org/2000/svg">
<path opacity="0.6" d="M9.25032 0.948561L9.02631 2.01256L8.24232 2.37656L7.68232 2.20856L7.29032 2.29256L7.09432 2.20856L6.45032 2.29256L6.36632 2.32056L6.31031 2.62856L5.94632 2.88056L5.80632 3.13256L5.83432 3.58056L5.61032 4.05656L5.66631 4.84056L5.41432 5.62456L5.52631 6.66056L5.33031 6.74456L5.30232 7.08056L5.44232 7.97656L5.30232 8.22856L5.41432 8.64856L5.35832 8.70456L5.49832 8.84456L5.10632 9.68456L5.02232 9.79656L5.21832 10.1606L4.71431 10.4966L4.85432 10.6926L5.07832 11.2526V11.8686L4.99432 12.2606L5.13432 12.7646L4.93832 13.1846L4.82632 13.6046L5.07832 14.2206L4.96632 14.6126L4.88232 15.3126L4.82632 15.3966L4.96632 15.6766L4.99432 16.2086L5.05032 16.8806L4.99432 17.1046L5.21832 17.7206L5.16232 18.1126L5.19032 18.3366H5.61032L5.63832 18.5326H5.72231L6.22632 18.9246L6.56231 19.0086L6.84232 19.0646L7.31832 18.7846L7.40232 18.8966L7.82232 18.9526L8.35432 18.7286L9.05432 19.6806L8.85832 20.3806L8.21432 21.1366L7.65432 20.9966L7.57032 21.0526L6.64632 20.9686L6.36632 20.8566L6.05832 20.9686L5.16232 20.6326L5.02232 20.4086H4.65832L4.21032 20.0166L3.39832 19.4006L3.11832 18.3366L3.20232 18.0006C3.10898 17.7579 3.06231 17.5432 3.06231 17.3566C3.06231 17.1886 3.09032 17.0486 3.14632 16.9366L3.06231 16.5726L2.78232 16.1806L2.95032 15.5086L2.81031 14.7806L2.92232 14.1926L2.95032 13.8566L2.81031 13.4086L3.00632 12.9886L3.03431 12.7086L2.83831 12.2606L3.03431 11.8406L2.89432 11.8686L2.78232 11.5046L2.50232 11.5886L2.44631 11.5326L1.74632 11.5606L0.822315 11.2526L0.430315 10.1606L1.41031 9.68456L2.39031 9.54456L2.47432 9.65656L2.64231 9.60056L2.53032 9.29256L3.17432 9.04056L3.25831 8.59256L3.17432 8.11656L3.45431 7.55656L3.39832 7.27656L3.51032 6.91256L3.37032 6.10056L3.56632 5.90456L3.51032 5.37256L3.48232 5.34456L3.73432 4.64456L3.62232 4.00056L3.84632 3.60856L3.93032 3.04856L3.79032 2.51656L4.23832 2.23656L4.15432 1.64856L4.71431 1.53656C4.82632 1.40589 4.95698 1.28456 5.10632 1.17256L5.30232 0.668561L6.11431 0.472562L7.48632 0.276561L7.73832 0.332562L8.07432 0.052561L8.85832 0.276561L9.25032 0.948561ZM33.5854 15.1726C33.492 15.4339 33.3707 15.6299 33.2214 15.7606C33.1654 15.9659 33.0814 16.1152 32.9694 16.2086C32.876 16.3952 32.764 16.5259 32.6334 16.6006L32.5214 16.7686C32.4467 16.8806 32.344 16.9366 32.2134 16.9366L32.0734 17.2166H31.8774L31.7374 17.4686L31.5134 17.5526L31.3454 17.7486L31.2054 17.8606C30.9254 17.8606 30.692 17.9446 30.5054 18.1126C30.2627 18.2059 30.0107 18.2526 29.7494 18.2526C29.488 18.2526 29.2267 18.1872 28.9654 18.0566C28.6667 18.0379 28.5174 17.9912 28.5174 17.9166L28.1254 17.8606L28.0414 17.7766L27.8734 17.4406L27.5654 17.1886C27.36 16.9459 27.248 16.7219 27.2294 16.5166C27.0987 16.3299 26.968 15.9752 26.8374 15.4526L26.5574 15.0046V14.7526L26.3614 13.9126L26.3894 13.5766L26.2214 12.7086L26.3054 12.0086L26.1654 11.8126L25.8854 12.5126C25.5307 12.9046 25.316 13.1472 25.2414 13.2406C25.1854 13.3152 25.1107 13.3526 25.0174 13.3526C24.9987 13.3526 24.9614 13.3432 24.9054 13.3246L24.7374 13.6326C24.7187 13.6512 24.7094 13.6886 24.7094 13.7446C24.7094 13.8566 24.7747 13.9219 24.9054 13.9406C24.868 13.9779 24.7747 14.1086 24.6254 14.3326C24.5507 14.4819 24.4854 14.5846 24.4294 14.6406L24.3454 14.5006L24.2894 14.8926C24.0467 15.0792 23.8787 15.3592 23.7854 15.7326C23.5987 15.9752 23.3094 16.3206 22.9174 16.7686L22.5534 17.1606C22.46 17.1606 22.4134 17.1792 22.4134 17.2166V17.2726C22.3014 17.5339 22.1054 17.7392 21.8254 17.8886L21.4894 18.3086H21.2934L20.6214 18.5606C20.0614 18.5232 19.716 18.2806 19.5854 17.8326L19.5574 17.5246L19.3894 17.1606V16.8526L19.1654 16.0406V15.7886L18.9974 15.5086L19.1094 14.6406C19.0907 14.5472 19.0814 14.4166 19.0814 14.2486C19.0814 14.0992 19.0907 13.9966 19.1094 13.9406L19.0814 13.7726V13.6606L18.9414 13.3526L19.1654 12.8206C19.128 12.6712 19.072 12.4286 18.9974 12.0926L19.0814 11.8406L19.1654 11.0286L18.9414 10.4406L18.9974 9.96456L18.9134 9.71256C18.8947 9.65656 18.8294 9.47923 18.7174 9.18056L18.5214 9.29256L18.1574 9.74056L17.8214 10.0486L17.1494 10.8886L17.0934 11.1966L16.6174 11.7006L16.4214 12.0926L16.2254 12.3166C16.1694 12.7272 15.964 13.0166 15.6094 13.1846L15.5814 13.5766C15.4694 13.6886 15.348 13.8379 15.2174 14.0246C15.1054 14.2112 15.0214 14.3232 14.9654 14.3606C14.928 14.3792 14.8534 14.4352 14.7414 14.5286L14.4054 15.0046C14.4054 15.3219 14.284 15.5459 14.0414 15.6766V15.8446C13.9294 15.9939 13.78 16.1432 13.5934 16.2926L13.5654 16.2366L13.4814 16.6286C13.332 16.6286 13.192 16.8059 13.0614 17.1606L12.9774 17.2726C12.9587 17.5712 12.8 17.7952 12.5014 17.9446L12.1094 18.3086C11.8107 18.4579 11.6147 18.5326 11.5214 18.5326C11.036 18.5326 10.7187 18.1312 10.5694 17.3286L10.4574 16.7126C10.4387 16.6752 10.4294 16.6192 10.4294 16.5446C10.4294 16.4139 10.4574 16.2832 10.5134 16.1526L10.3734 15.6206L10.4294 15.1726L10.3734 14.7246C10.4107 14.3326 10.476 14.0899 10.5694 13.9966C10.5134 13.6046 10.4854 13.3806 10.4854 13.3246V12.8206C10.56 12.6899 10.6534 12.5219 10.7654 12.3166L10.5974 12.1486C10.56 11.9992 10.5414 11.9152 10.5414 11.8966C10.5414 11.7659 10.6534 11.5419 10.8774 11.2246L10.6814 10.6926L10.7934 10.3566L10.6254 9.54456L10.6814 9.15256L10.5414 8.53656L10.5694 8.11656L10.3174 7.61256C10.6907 6.88456 11.092 6.52056 11.5214 6.52056C11.7454 6.52056 11.96 6.6139 12.1654 6.80056L12.2214 7.08056C12.5387 7.24856 12.6974 7.50056 12.6974 7.83656C12.6974 7.78056 12.6694 7.97656 12.6134 8.42456L12.5014 8.39656L12.7534 8.87256L12.5854 9.09656L12.5574 9.20856L12.7254 10.4966L12.6694 11.5886L12.5854 11.7846L12.6974 12.2326C12.7534 12.3072 12.7814 12.4006 12.7814 12.5126C12.7814 12.6619 12.7067 12.8112 12.5574 12.9606C12.5574 13.2219 12.5107 13.4366 12.4174 13.6046L12.5014 14.4446V14.7806L12.5294 14.7246L12.6974 14.4726L13.0894 13.7726H13.1734C13.2854 13.7726 13.4067 13.5952 13.5374 13.2406L13.7334 12.7086C13.7707 12.5966 13.9107 12.4192 14.1534 12.1766L14.2654 11.6726L14.6014 11.1686L14.7134 10.7766C14.8067 10.7206 14.9 10.6552 14.9934 10.5806L15.0214 10.4966C15.0774 10.4219 15.2827 10.2259 15.6374 9.90856L15.8054 9.82456L15.8614 9.54456L16.0014 9.46056C16.0947 9.06856 16.328 8.80723 16.7014 8.67656L16.5894 8.59256L16.7014 8.53656C16.6827 8.5179 16.6734 8.4899 16.6734 8.45256C16.6734 8.41523 16.692 8.35923 16.7294 8.28456L17.1774 8.08856L17.2614 7.64056H17.5694C17.5694 7.6219 17.588 7.55656 17.6254 7.44456L18.1854 6.99656C18.4467 6.92189 18.624 6.88456 18.7174 6.88456C18.9414 6.88456 19.2494 6.9499 19.6414 7.08056L19.9214 7.47256L20.0334 7.52856L20.1734 7.86456L20.5654 8.39656V8.76056L20.8174 9.04056V9.46056C21.0227 9.90856 21.1254 10.2912 21.1254 10.6086L21.0414 10.9446L21.2094 11.4206L20.9014 11.7286L21.0134 12.3446L20.9854 12.5126L20.9574 12.6526C20.92 12.8392 20.9014 12.9792 20.9014 13.0726C20.9014 13.1659 20.948 13.3526 21.0414 13.6326L20.9574 13.9406L21.0414 14.3326L20.9574 14.4166C20.9947 14.6779 21.0507 15.1166 21.1254 15.7326L21.0974 15.8446L21.9934 14.8646L22.2734 14.3326C22.348 14.2206 22.4694 14.0432 22.6374 13.8006V13.7446C22.712 13.4459 22.8334 13.2406 23.0014 13.1286C23.0014 13.0166 23.0947 12.8766 23.2814 12.7086L23.5054 12.5686C23.58 12.2512 23.776 11.9899 24.0934 11.7846L24.2334 11.3926L24.4854 11.0566L24.7654 10.7766C24.9334 10.6459 25.064 10.4406 25.1574 10.1606L25.3814 9.82456L25.4934 9.40456L25.8014 9.23656L26.1094 8.84456L26.4174 8.17256C26.3427 8.17256 26.3054 8.1539 26.3054 8.11656C26.3054 8.11656 26.324 8.07923 26.3614 8.00456L26.5574 7.83656L26.7814 7.38856C27.0987 7.27656 27.276 7.22056 27.3134 7.22056C27.3134 7.22056 27.3507 7.23923 27.4254 7.27656L27.9294 7.30456L28.3774 7.50056L28.7694 7.94856L28.8534 8.34056L28.8254 8.64856L28.6854 8.76056L28.3774 9.34856L28.2654 9.99256C28.3587 10.0859 28.4054 10.2539 28.4054 10.4966C28.3307 10.5899 28.2934 10.7112 28.2934 10.8606L28.1814 11.0846C28.2187 11.1779 28.2374 11.3272 28.2374 11.5326C28.2374 11.7006 28.228 11.8219 28.2094 11.8966L28.0974 12.0366L28.2094 12.2326L28.0134 12.4846C28.1254 12.4846 28.1814 12.6059 28.1814 12.8486C28.2187 12.9606 28.2374 13.0352 28.2374 13.0726C28.2374 13.1286 28.2187 13.1939 28.1814 13.2686C28.2187 13.4552 28.2374 13.6326 28.2374 13.8006V13.8566C28.2374 13.8939 28.3587 14.2766 28.6014 15.0046L28.6574 15.2846L28.9654 15.6206L29.1334 16.0126L29.3014 16.0966L29.4134 16.2646L29.5534 16.2926L29.8054 16.3486L29.9454 16.3206H30.0294C30.216 16.3206 30.44 16.2459 30.7014 16.0966C30.776 15.9099 30.972 15.7139 31.2894 15.5086C31.308 15.4152 31.42 15.2379 31.6254 14.9766L32.1014 14.6406L32.2694 14.3046C32.4187 14.2112 32.5774 14.1646 32.7454 14.1646C32.9507 14.1646 33.1747 14.2206 33.4174 14.3326C33.5294 14.5192 33.5854 14.7992 33.5854 15.1726ZM43.8997 11.9246L43.7317 12.4286C43.7317 12.9139 43.7037 13.2966 43.6477 13.5766L43.4797 13.8566V14.1646L43.3397 14.3606L43.2557 14.7526L42.9477 15.0606L42.7517 15.7606L42.5277 15.8446L42.4157 16.1526L42.0797 16.3486L41.8557 16.8246L41.5197 16.9926L41.4917 17.3286L40.9597 17.5246C40.717 17.8606 40.4183 18.0752 40.0637 18.1686L39.9517 18.1966C39.6903 18.5886 39.345 18.7846 38.9157 18.7846C38.729 18.8966 38.5143 18.9526 38.2717 18.9526L37.9917 19.1486L37.7117 19.2326L37.3477 19.5126L36.9837 19.4846L36.5917 19.5966L36.1157 19.4006L34.9117 19.3166L34.4917 18.6726L33.8757 18.0286L34.0157 17.5806L33.5957 16.6286L33.7917 16.2646L33.6517 15.5926L33.7917 15.1726C33.7543 14.9112 33.7357 14.7246 33.7357 14.6126C33.7357 14.2579 33.829 13.9966 34.0157 13.8286C34.0343 13.6419 34.1557 13.3339 34.3797 12.9046H34.5197L34.4637 12.7086L34.5477 12.3166V11.8966C34.697 11.7286 34.781 11.6166 34.7997 11.5606L34.7157 11.1686V11.0566C34.8463 10.7952 34.9117 10.5246 34.9117 10.2446L35.4997 9.43256C35.4997 9.43256 35.5183 9.4139 35.5557 9.37656C35.6117 9.33923 35.6583 9.3019 35.6957 9.26456L35.6677 9.15256H35.7797L36.1997 8.67656L36.2277 8.03256L36.9277 7.78056C37.189 7.61256 37.357 7.33256 37.4317 6.94056H37.7957C38.001 6.82856 38.1877 6.77256 38.3557 6.77256C38.5237 6.77256 38.6823 6.8099 38.8317 6.88456L39.1397 6.91256L39.8677 6.63256L40.2597 6.99656L40.5677 7.19256H40.7917L41.2117 7.41656H41.4357C41.6783 7.64056 41.9583 7.94856 42.2757 8.34056L42.3317 8.48056L42.5277 8.59256L43.1157 9.34856L43.6477 10.6646V10.9446L43.8997 11.9246ZM42.0517 12.5966L42.0237 12.4566C41.893 12.3259 41.8183 12.1859 41.7997 12.0366L41.8837 11.8966L41.6317 11.3646L41.6877 10.8326L41.5757 10.6926C41.333 10.5059 41.2023 10.3566 41.1837 10.2446C41.0157 10.1699 40.9317 9.98323 40.9317 9.68456L40.7637 9.65656L40.4277 9.09656L40.1757 8.90056L39.5877 8.67656L39.3637 8.62056C39.2517 8.62056 39.177 8.58323 39.1397 8.50856L38.5797 9.12456L38.2157 9.90856L37.6277 10.2166L37.5437 10.5246L37.2637 10.6646L37.1517 11.3926L36.8157 11.5606C36.741 11.8219 36.7037 12.0646 36.7037 12.2886L36.2557 12.7086L36.3957 12.7926C36.3957 13.0166 36.3117 13.2126 36.1437 13.3806C36.0877 13.5486 36.013 13.7352 35.9197 13.9406V14.1646L35.8357 14.2766L35.8637 14.6126L35.5557 15.3686L35.6117 15.5086V16.2926L35.4997 16.6846L35.5277 17.0766L35.7797 17.4406L36.1717 17.5806L36.3117 17.6366L36.5357 17.5246L37.2637 17.5806L37.3757 17.3006H37.4877C37.5997 17.3006 37.665 17.3286 37.6837 17.3846L37.9357 17.3006L38.1597 17.3846L38.5237 17.1326L38.5797 17.0486L38.8317 16.9926C38.9623 16.7872 39.2703 16.5819 39.7557 16.3766L39.8117 16.2366L40.3717 15.8446L40.6797 15.3966L41.1277 15.1726L41.1557 15.0326L41.2957 14.7246V14.3606L41.6317 14.0806L41.7437 13.8846L41.8837 13.7166C41.809 13.4926 41.7717 13.3339 41.7717 13.2406C41.7717 13.0726 41.8277 12.8952 41.9397 12.7086L42.0517 12.5966ZM55.2609 14.1086L54.7289 14.6126L54.7009 14.7806C54.6449 15.1166 54.4862 15.3872 54.2249 15.5926C53.7769 16.4326 53.1515 17.0486 52.3489 17.4406L51.9289 17.7766L51.5649 17.8326L51.1169 18.1686L50.8089 18.1966L50.1089 18.6446L49.6609 18.5886L49.1569 18.8126L48.7649 18.7006L48.5689 18.8686L48.0369 18.7846L47.5049 18.8686L47.3089 18.7006L46.7489 18.5886L45.9369 17.9726L45.4889 17.4126C45.2089 17.0579 45.0689 16.7592 45.0689 16.5166V16.4326L44.7889 16.0126V15.6486C44.7329 15.4246 44.7049 15.2192 44.7049 15.0326V14.8366L44.5649 14.3606L44.7049 14.0246L44.5929 13.8006L44.9289 13.2686L44.8449 12.8206L45.0689 12.0926L45.1809 11.9246L45.2929 11.2526L45.2369 11.1406L45.5729 10.7766L45.6289 10.4966L45.8529 9.85256L46.2169 9.06856L46.7209 8.62056L46.8329 8.36856L47.0009 8.06056L47.0569 7.78056L47.5049 7.24856C47.6169 7.21123 47.7475 7.1739 47.8969 7.13656C47.9715 6.7819 48.4382 6.57656 49.2969 6.52056C50.0249 6.6699 50.4915 6.8659 50.6969 7.10856C50.9022 7.1459 51.0609 7.2299 51.1729 7.36056L51.7609 7.38856L52.1529 7.89256C52.2462 8.07923 52.3115 8.2659 52.3489 8.45256L52.5729 8.67656L52.4889 9.09656C52.5075 9.22723 52.5169 9.43256 52.5169 9.71256L52.6569 9.82456V10.2446L52.7689 11.1126C52.3769 11.5046 51.9289 11.7286 51.4249 11.7846C51.1635 11.2992 50.8369 10.9352 50.4449 10.6926L50.3889 9.76856L50.2209 9.46056V9.23656L49.9409 8.90056L49.8009 8.78856L49.5489 8.87256H49.1849C48.9422 8.92856 48.7089 9.1059 48.4849 9.40456C48.2609 9.70323 48.0369 10.0206 47.8129 10.3566L47.7849 10.6366L47.6169 10.7766V11.2806L47.2529 11.6726L46.8049 12.9046L46.8329 13.2406L46.6089 13.7446L46.6929 14.3606L46.5249 14.4446L46.4689 15.2286L46.4969 15.3686L46.8329 15.7046L46.9729 16.2926L47.3649 16.4046L47.3929 16.6286L47.8689 16.7126L48.2329 16.7966C48.3635 16.7219 48.5222 16.6846 48.7089 16.6846H48.9049C49.1289 16.5912 49.3342 16.5446 49.5209 16.5446C49.6515 16.4886 49.8195 16.4326 50.0249 16.3766C50.2489 16.0779 50.5662 15.9286 50.9769 15.9286H51.1449C51.2382 15.9286 51.3035 15.8819 51.3409 15.7886C51.5462 15.4712 51.8729 15.2659 52.3209 15.1726C52.8435 14.7059 53.1422 14.3326 53.2169 14.0526C53.4782 13.9032 53.6462 13.6699 53.7209 13.3526L53.8889 13.2406L53.9729 12.5966C54.8315 12.7272 55.2609 13.1566 55.2609 13.8846V14.1086ZM72.2755 16.4046L72.1075 16.7126C72.1075 17.2539 71.9208 17.6739 71.5475 17.9726C71.5475 18.1592 71.4821 18.3086 71.3515 18.4206L71.2115 18.7286L70.8475 18.9806L70.6795 19.2886L69.5595 19.8766L69.0275 20.0166L68.2155 20.0726L67.7675 19.8766L67.4035 19.9046L67.0395 19.6526L66.7595 19.6246L65.6395 19.0366L64.6315 18.1966C64.3328 17.9352 63.8848 17.5619 63.2875 17.0766L62.6715 16.2366L62.1675 15.8166L62.0835 15.6206L61.8315 15.3126C61.5888 15.0139 61.2995 14.6966 60.9635 14.3606L60.4875 14.1926L59.9555 13.1286L60.0395 12.7086C60.1515 12.1112 60.4501 11.7752 60.9355 11.7006L61.4675 11.8686L61.9155 12.3166L62.3915 12.6246H62.8395L62.9515 12.7086C63.1008 12.7086 63.2221 12.7179 63.3155 12.7366C63.5021 12.6432 63.8288 12.5406 64.2955 12.4286L64.5475 12.3726L64.7155 12.0086H65.3875C65.5928 11.8406 65.8075 11.7472 66.0315 11.7286H66.0875C66.1435 11.5979 66.2181 11.4392 66.3115 11.2526L66.8435 11.0006L67.0675 10.7766L67.4875 10.0766H67.6835C67.7581 9.8899 67.8328 9.62856 67.9075 9.29256L68.1595 9.12456L67.9635 9.01256L68.0755 8.53656C68.0381 8.4619 67.9355 8.39656 67.7675 8.34056L67.4315 8.45256L67.3195 8.22856L67.0395 8.11656L66.9555 8.00456C66.6755 7.96723 66.2741 7.9299 65.7515 7.89256V7.78056L65.5835 7.89256C65.4341 7.85523 65.3221 7.83656 65.2475 7.83656C65.0048 7.83656 64.6501 7.96723 64.1835 8.22856H63.7915C63.0821 8.47123 62.6808 8.64856 62.5875 8.76056L61.9715 8.95656L61.1035 9.65656L60.2915 10.4686V10.5806L59.7595 11.5046L59.5915 12.0366L59.4795 12.0926V12.2046C59.4235 12.3166 59.3768 12.4192 59.3395 12.5126L59.1715 12.5966L59.2275 12.6806L59.1435 12.8206C59.1248 12.8579 59.1155 12.9046 59.1155 12.9606C59.1155 13.0539 59.1528 13.1379 59.2275 13.2126C59.2275 13.6046 59.1341 13.8566 58.9475 13.9686C58.9101 14.0432 58.8915 14.1179 58.8915 14.1926C58.8915 14.2486 58.9008 14.2952 58.9195 14.3326C58.9195 14.6499 58.8541 14.9112 58.7235 15.1166C58.6301 15.2099 58.5741 15.2752 58.5555 15.3126L58.6395 15.7326L58.5555 16.2926L58.5835 16.7406C58.4341 17.0766 58.3595 17.3472 58.3595 17.5526C58.3968 17.7392 58.4155 17.8419 58.4155 17.8606C58.4155 18.0659 58.2941 18.2806 58.0515 18.5046C57.8275 18.7286 57.6128 18.8406 57.4075 18.8406C57.1461 18.8406 56.8755 18.6819 56.5955 18.3646L56.2875 17.4966L56.3715 16.9926L56.2875 15.9006L56.3715 15.6206V14.7246L56.4275 14.3606V14.0526C56.4275 13.6792 56.4461 13.3059 56.4835 12.9326C56.5208 12.5406 56.5395 12.3352 56.5395 12.3166V11.8406L56.5675 11.5886V10.8046L56.6515 10.5806L56.5675 10.2446L56.6795 9.32056V8.34056L56.5675 7.78056L56.7075 7.55656L56.6795 7.44456L56.5675 5.93256L56.3715 5.00856V4.75656L56.5395 3.80456L56.4275 3.44056L56.3715 2.76856C56.3341 2.32056 56.3155 2.12456 56.3155 2.18056C56.3155 1.52723 56.8288 1.18189 57.8555 1.14456L58.4715 0.808561L58.3595 2.18056L58.4715 2.96456L58.2755 3.77656L58.3315 4.67256L58.4715 5.17656L58.3875 5.65256L58.4435 6.32456L58.3595 6.88456L58.4995 7.47256L58.4435 7.61256L58.5555 7.89256L58.4155 8.67656V8.84456L58.5555 9.37656C58.4621 9.4139 58.4155 9.5539 58.4155 9.79656L58.3315 10.4686L58.3875 10.7206L58.7235 10.1326L58.8915 9.48856C58.8915 9.48856 59.0221 9.2739 59.2835 8.84456C59.2835 8.6579 59.3488 8.4899 59.4795 8.34056H59.7875L60.0115 7.86456L60.6555 7.55656C60.9168 7.29523 61.2155 7.10856 61.5515 6.99656L61.7195 6.85656L62.1675 6.63256L62.5315 6.54856C62.9235 6.21256 63.7728 5.98856 65.0795 5.87656L67.2635 6.04456L67.7115 6.29656L67.9355 6.32456L68.4115 6.82856L68.4395 6.66056C68.6821 6.77256 68.8595 6.9499 68.9715 7.19256C69.0648 7.1739 69.1021 7.16456 69.0835 7.16456C69.1581 7.16456 69.2328 7.19256 69.3075 7.24856L69.8955 8.45256L69.8675 8.59256C69.9608 8.77923 70.0075 8.94723 70.0075 9.09656C70.0075 9.3579 69.9048 9.61923 69.6995 9.88056V10.0486L69.3075 11.0846L68.7195 11.8966L68.5515 11.9246C68.5515 11.9246 68.4395 12.0739 68.2155 12.3726C68.0101 12.3726 67.8515 12.3166 67.7395 12.2046V12.6526L67.5155 12.7926L67.3475 13.1006L66.8435 13.2406C66.7688 13.2592 66.6848 13.3432 66.5915 13.4926C65.3035 13.9966 64.5848 14.2486 64.4355 14.2486C64.3795 14.2486 64.2675 14.2392 64.0995 14.2206C63.9501 14.1832 63.8195 14.1646 63.7075 14.1646C63.6328 14.1646 63.5768 14.1739 63.5395 14.1926C63.5581 14.2486 63.6608 14.4539 63.8475 14.8086L64.2115 15.0326L64.7155 15.9286L65.4715 16.3766L65.5275 16.4886L65.7795 16.6286L66.1435 17.0486L66.8155 17.5806L67.7115 17.9446L68.2155 18.0846L68.5795 18.0566L68.7755 17.9726C69.1488 17.9166 69.5035 17.7672 69.8395 17.5246L70.3155 16.6566L70.5955 16.3206L70.7635 15.8166C71.0435 15.7232 71.2675 15.6766 71.4355 15.6766C71.8648 15.6766 72.1448 15.9192 72.2755 16.4046ZM91.3115 16.4606L90.9755 17.6366L90.7515 17.9726C90.4529 18.4206 90.1635 18.6446 89.8835 18.6446C89.6595 18.6446 89.3609 18.4859 88.9875 18.1686L88.4275 17.3566L88.1755 16.8526L88.0635 16.3486L87.8115 15.5086V14.2766L87.7275 13.2126L87.8115 12.6246L87.7555 12.4566L87.0555 13.4366H86.9715L86.9435 13.5206L86.4675 14.2766L85.6835 15.1166L85.0955 15.9286L84.4795 16.5166C84.3115 16.8152 84.1155 17.0766 83.8915 17.3006L83.3315 17.6926L82.9955 18.1406L82.3795 18.3366L82.1275 18.6446L81.5115 18.7566L81.0075 19.0646L80.9235 19.0366L80.8675 19.1766L79.9995 19.0646L78.9635 18.3366C78.6835 18.0192 78.5062 17.6739 78.4315 17.3006C78.4689 17.2819 78.5062 17.2539 78.5435 17.2166C78.5809 17.1606 78.6089 17.1232 78.6275 17.1046C78.6089 17.0859 78.5062 17.0392 78.3195 16.9646L78.0675 16.4046L78.2075 16.2086L78.0675 15.8726L78.2075 15.4806L78.1515 14.9766L78.3475 14.1646V13.2966L78.5435 13.0446V12.4566L78.7395 12.0926L78.7955 11.6726L78.8515 11.6166V11.2526L79.1315 10.8046L79.1875 10.4126L79.3555 10.1326L79.4395 9.96456L79.5515 9.29256L79.7475 8.70456L79.8875 8.56456L79.9435 8.20056L80.3075 7.80856C80.3449 7.71523 80.4289 7.51923 80.5595 7.22056L81.2595 6.91256L81.7075 6.43656L82.9955 6.07256C83.2009 6.07256 83.3595 6.06323 83.4715 6.04456L83.6675 6.15656L83.7235 5.93256L84.3675 5.87656L84.5915 5.96056L84.7875 5.93256L84.9555 6.07256L85.4875 6.10056L85.5995 6.01656L85.7395 6.12856L86.0195 6.15656V6.35256L86.1315 6.43656L86.6915 6.54856L87.1115 7.02456L87.6715 7.44456L87.8115 7.72456L87.8395 7.75256L87.9515 7.36056L88.1195 6.99656L88.0635 6.35256L88.1755 5.17656L88.0075 4.72856L88.2315 4.39256L88.1195 4.08456L88.2035 3.30056L88.1195 2.62856L87.8675 2.43256L88.2595 1.98456V1.67656C88.2595 1.35923 88.1382 1.01389 87.8955 0.640562H88.0635L88.3715 0.192561C88.6515 0.136562 88.9035 0.108562 89.1275 0.108562C89.3889 0.108562 89.6035 0.164562 89.7715 0.276561C90.0702 0.369895 90.2195 0.817895 90.2195 1.62056H90.0795L90.0515 1.73256L90.3035 1.95656L90.1355 2.40456L90.3875 2.93656L90.2475 3.10456C90.3035 3.23523 90.3315 3.36589 90.3315 3.49656C90.3315 3.62723 90.3035 3.76723 90.2475 3.91656L90.3875 4.08456C90.4249 4.15923 90.4435 4.28056 90.4435 4.44856C90.4435 4.6539 90.3969 4.84056 90.3035 5.00856C90.2102 6.18456 90.1262 6.91256 90.0515 7.19256C90.0702 7.24856 90.0795 7.33256 90.0795 7.44456C90.0795 7.5939 90.0515 7.75256 89.9955 7.92056V8.08856C89.9955 8.31256 89.9582 8.56456 89.8835 8.84456L89.7995 9.68456L89.6595 9.90856L89.7435 10.1606L89.6035 10.5806L89.7435 10.9446L89.5195 11.8126L89.6595 12.4566L89.5755 12.8206L89.6315 13.3806C89.6875 13.5112 89.7155 13.6326 89.7155 13.7446C89.7155 13.8379 89.7062 13.9126 89.6875 13.9686L89.8555 14.1366L89.6315 14.6966L89.8555 15.2846L89.7715 15.4526L89.8555 15.6206L89.7715 15.7886L89.8555 15.8726L90.1075 16.0966L90.5835 16.1526L91.3115 16.4606ZM87.1395 9.62856L87.0275 9.57256C86.8969 9.4979 86.7755 9.37656 86.6635 9.20856C86.5702 9.04056 86.4769 8.87256 86.3835 8.70456C86.1969 8.64856 86.0382 8.52723 85.9075 8.34056H85.7395L85.2355 8.03256L84.5915 7.89256L83.9755 7.97656L83.3315 8.14456L83.1355 7.97656L82.9115 8.06056V8.17256L82.6595 8.22856C82.4915 8.52723 82.2302 8.78856 81.8755 9.01256L81.6515 9.48856L81.4275 9.65656L81.2315 10.1046L81.1475 11.0286L80.8955 11.2526V11.7566L80.6155 11.9526L80.6715 12.6246L80.1955 13.5486L80.1115 13.9966L80.0555 14.7246L80.2235 15.0326L80.0275 15.3406L80.1955 15.5366L79.9155 16.0406L80.0555 16.2926L80.1675 16.6286L80.3355 16.7406H80.5315L80.7835 16.5166L81.0075 16.5446L81.4835 16.3486L81.5395 16.1806L82.0715 15.9846L82.1275 15.8166L82.4635 15.6206V15.5646L83.1635 14.8366L83.4995 14.6966L83.6675 14.3326L84.0315 14.2766L84.4795 13.7726L84.3955 13.7166L84.5915 13.5206L84.8715 12.9326L85.1235 12.6806L85.2635 12.0646L85.7115 11.9246L86.0195 11.4766L86.1315 11.3926V10.8886L86.5515 10.6926L87.1395 9.62856ZM104.146 7.13656L103.866 7.50056L104.09 8.17256L103.726 8.59256L103.586 9.18056L103.502 9.32056L103.558 9.46056C103.558 9.7219 103.493 9.9179 103.362 10.0486L103.306 10.1326V10.2446C103.362 10.3752 103.39 10.4966 103.39 10.6086C103.39 10.7019 103.381 10.7672 103.362 10.8046L103.39 10.9166L103.278 11.2246L103.362 11.5606L103.138 11.7846L103.222 12.1766L103.39 12.3726L103.138 12.5966V13.0446L102.942 13.4926L103.082 13.9406L102.914 14.1646L103.194 14.3606L102.802 15.0046L102.774 15.0886L103.054 15.1446L102.858 15.7886V15.9006C102.858 16.0312 102.849 16.1339 102.83 16.2086L102.858 16.2926L103.306 16.3486L103.67 16.9086L103.474 17.3286L103.782 17.3006C103.894 17.5246 103.96 17.7206 103.978 17.8886L103.558 18.3086C103.428 18.4392 103.241 18.5699 102.998 18.7006L102.522 18.9526L102.382 18.8126L102.102 18.9806L101.234 17.9726V17.4966C101.122 17.1232 101.066 16.7779 101.066 16.4606V16.2926L100.898 14.6406L101.122 13.4646L100.954 12.7926L100.478 13.5766L100.226 14.3046L100.002 14.4166L99.6103 15.0326L98.9103 15.6766L98.7143 16.0126L98.0983 16.5446L97.9583 16.9086L97.0623 17.4686L96.1103 18.5326L95.5783 18.6446L95.2143 18.9246C94.7476 18.9059 94.3929 18.7286 94.1503 18.3926C93.3103 17.9819 92.8716 17.3939 92.8343 16.6286L92.9743 16.5446L92.9463 16.3766L92.9183 16.0406L92.7503 15.6766L92.9183 15.2846L92.9743 14.6966L93.1703 13.7726C93.1703 13.7539 93.1703 13.7166 93.1703 13.6606C93.1516 13.6232 93.1423 13.5859 93.1423 13.5486C93.1423 13.4739 93.1609 13.3806 93.1983 13.2686C93.1796 13.2312 93.1703 13.1566 93.1703 13.0446C93.1703 12.9139 93.2263 12.6992 93.3383 12.4006L93.5343 12.3166C93.4223 12.2232 93.3663 12.1206 93.3663 12.0086C93.3663 11.9339 93.3756 11.8779 93.3943 11.8406C93.3756 11.7846 93.3663 11.7192 93.3663 11.6446C93.3663 11.4206 93.4783 11.2526 93.7023 11.1406C93.7583 10.9539 93.8609 10.7672 94.0103 10.5806L93.8703 10.3566L94.2063 9.93656V9.82456C94.2063 9.4699 94.3276 9.14323 94.5703 8.84456L94.5423 8.34056L94.6543 8.22856C94.6543 8.2099 94.6543 8.1819 94.6543 8.14456C94.6356 8.10723 94.6263 8.07923 94.6263 8.06056C94.6263 7.94856 94.6636 7.85523 94.7383 7.78056V7.61256C94.8129 7.4259 95.0089 7.1459 95.3263 6.77256C95.6436 6.39923 95.8769 6.07256 96.0263 5.79256L96.1663 5.93256L96.4743 5.79256L96.6143 5.73656L97.5383 5.31656L99.6943 5.42856V5.62456L100.366 5.76456C100.796 5.76456 101.076 5.90456 101.206 6.18456C101.206 6.12856 101.216 6.06323 101.234 5.98856C101.234 5.93256 101.234 5.89523 101.234 5.87656L101.822 6.40856L102.354 6.52056L103.362 6.26856L103.726 6.96856L104.146 7.13656ZM101.486 8.59256L101.374 8.39656L101.15 8.34056L100.282 7.64056L99.7223 7.55656H99.2743L99.2183 7.50056L98.9943 7.58456L98.7423 7.44456H98.0143L98.0983 7.55656L97.4543 7.78056L97.3423 7.92056L97.2583 7.94856C96.9223 8.22856 96.6889 8.4619 96.5583 8.64856L96.3623 9.32056L96.2503 9.57256L96.5303 9.96456L96.0543 10.3286L96.1103 10.4406C95.9049 10.7952 95.8023 11.1406 95.8023 11.4766L95.5783 11.7566V12.2606L95.3543 12.5126L95.2983 12.7646L95.2143 12.8206V13.2126L95.1303 13.3526C95.1303 13.5766 95.1116 13.7539 95.0743 13.8846L95.1303 14.0246L94.8783 14.5566L94.9903 14.7246L94.7943 15.0046L94.9903 15.5366L94.6823 15.9286L94.7383 16.4606V16.5446L94.8503 16.6006L94.9903 16.5726C95.0836 16.4792 95.1769 16.3952 95.2703 16.3206L95.2143 16.0966L95.6063 16.0406L95.6903 15.8446L97.3423 14.5006L97.5103 14.4446L97.7063 13.9686C97.8183 13.9312 97.9769 13.8566 98.1823 13.7446L98.3503 13.2966H98.5743L98.4903 12.8206L98.8823 12.7646C98.9196 12.6899 98.9756 12.5966 99.0503 12.4846C99.1436 12.3726 99.2369 12.2699 99.3303 12.1766L100.758 10.2726L100.982 9.85256L100.954 9.74056L101.15 9.43256L101.206 9.12456L101.458 8.90056L101.486 8.59256ZM114.944 8.42456C114.944 8.59256 114.776 8.75123 114.44 8.90056C114.366 8.9939 114.226 9.0779 114.02 9.15256C113.759 9.26456 113.572 9.3579 113.46 9.43256L112.872 9.23656C112.574 9.46056 112.191 9.57256 111.724 9.57256L111.388 9.48856L111.136 9.71256H110.38L109.904 10.0206C109.699 9.9459 109.503 9.90856 109.316 9.90856C109.26 9.9459 109.13 9.98323 108.924 10.0206C108.831 10.0206 108.728 9.99256 108.616 9.93656L108.532 11.0006L108.56 11.7846L108.476 12.7646L108.532 13.8286L108.616 14.3326V14.7246L109.008 15.5646C108.952 15.6206 108.924 15.6859 108.924 15.7606C108.924 15.8912 109.13 15.9939 109.54 16.0686L109.596 16.4046L109.792 16.4886L110.128 16.7126L110.352 16.8806C110.539 16.8432 110.67 16.8246 110.744 16.8246C110.912 16.8246 111.08 16.8526 111.248 16.9086C111.323 16.8712 111.482 16.7406 111.724 16.5166C111.892 16.3672 112.051 16.2926 112.2 16.2926C112.219 16.2926 112.247 16.2926 112.284 16.2926C112.322 16.3112 112.35 16.3206 112.368 16.3206C112.536 15.9659 112.835 15.7326 113.264 15.6206C113.656 15.6206 113.983 15.7419 114.244 15.9846V16.1806C114.244 16.8152 114.02 17.2166 113.572 17.3846C113.404 17.7766 113.05 18.0286 112.508 18.1406L112.172 18.4486H111.808L111.164 18.6166C111.015 18.6539 110.8 18.6726 110.52 18.6726C110.371 18.6726 110.212 18.6352 110.044 18.5606H109.68L108.7 18.0286L108.448 17.9446L107.86 17.1606L107.524 16.7966L106.908 15.3966L106.684 14.0806L106.74 13.7446L106.516 13.4366L106.656 13.0446L106.516 12.4286L106.712 12.2326L106.768 11.8686L106.684 11.5326L106.74 11.0286L106.628 10.5806L106.768 10.4406V9.99256L106.572 9.90856L106.04 10.0206L105.536 9.65656H105.452C104.892 9.65656 104.612 9.3579 104.612 8.76056V8.67656L104.276 8.14456L104.808 7.64056L105.508 7.75256L105.872 7.69656L106.404 7.83656H106.992V7.27656L106.628 6.49256L106.992 6.29656L106.852 5.87656L106.88 5.00856L106.656 4.64456C106.526 4.43923 106.46 4.25256 106.46 4.08456C106.46 3.87923 106.507 3.71123 106.6 3.58056L106.684 3.18856L106.908 2.96456C107.412 2.87123 107.748 2.82456 107.916 2.82456C108.514 2.82456 108.84 3.09523 108.896 3.63656L108.812 3.77656C108.924 3.94456 108.98 4.10323 108.98 4.25256C108.98 4.27123 108.971 4.3179 108.952 4.39256L108.896 4.56056L108.868 4.75656L108.98 5.12056L108.952 5.26056L109.008 5.65256L108.756 5.98856L108.896 6.54856L108.784 7.22056L109.008 7.47256L108.784 7.97656L109.652 7.86456L111.192 8.00456L112.424 7.80856L112.844 7.83656L112.984 7.80856H114.076C114.655 7.80856 114.944 8.0139 114.944 8.42456ZM126.16 7.13656L125.88 7.50056L126.104 8.17256L125.74 8.59256L125.6 9.18056L125.516 9.32056L125.572 9.46056C125.572 9.7219 125.507 9.9179 125.376 10.0486L125.32 10.1326V10.2446C125.376 10.3752 125.404 10.4966 125.404 10.6086C125.404 10.7019 125.395 10.7672 125.376 10.8046L125.404 10.9166L125.292 11.2246L125.376 11.5606L125.152 11.7846L125.236 12.1766L125.404 12.3726L125.152 12.5966V13.0446L124.956 13.4926L125.096 13.9406L124.928 14.1646L125.208 14.3606L124.816 15.0046L124.788 15.0886L125.068 15.1446L124.872 15.7886V15.9006C124.872 16.0312 124.863 16.1339 124.844 16.2086L124.872 16.2926L125.32 16.3486L125.684 16.9086L125.488 17.3286L125.796 17.3006C125.908 17.5246 125.973 17.7206 125.992 17.8886L125.572 18.3086C125.441 18.4392 125.255 18.5699 125.012 18.7006L124.536 18.9526L124.396 18.8126L124.116 18.9806L123.248 17.9726V17.4966C123.136 17.1232 123.08 16.7779 123.08 16.4606V16.2926L122.912 14.6406L123.136 13.4646L122.968 12.7926L122.492 13.5766L122.24 14.3046L122.016 14.4166L121.624 15.0326L120.924 15.6766L120.728 16.0126L120.112 16.5446L119.972 16.9086L119.076 17.4686L118.124 18.5326L117.592 18.6446L117.228 18.9246C116.761 18.9059 116.407 18.7286 116.164 18.3926C115.324 17.9819 114.885 17.3939 114.848 16.6286L114.988 16.5446L114.96 16.3766L114.932 16.0406L114.764 15.6766L114.932 15.2846L114.988 14.6966L115.184 13.7726C115.184 13.7539 115.184 13.7166 115.184 13.6606C115.165 13.6232 115.156 13.5859 115.156 13.5486C115.156 13.4739 115.175 13.3806 115.212 13.2686C115.193 13.2312 115.184 13.1566 115.184 13.0446C115.184 12.9139 115.24 12.6992 115.352 12.4006L115.548 12.3166C115.436 12.2232 115.38 12.1206 115.38 12.0086C115.38 11.9339 115.389 11.8779 115.408 11.8406C115.389 11.7846 115.38 11.7192 115.38 11.6446C115.38 11.4206 115.492 11.2526 115.716 11.1406C115.772 10.9539 115.875 10.7672 116.024 10.5806L115.884 10.3566L116.22 9.93656V9.82456C116.22 9.4699 116.341 9.14323 116.584 8.84456L116.556 8.34056L116.668 8.22856C116.668 8.2099 116.668 8.1819 116.668 8.14456C116.649 8.10723 116.64 8.07923 116.64 8.06056C116.64 7.94856 116.677 7.85523 116.752 7.78056V7.61256C116.827 7.4259 117.023 7.1459 117.34 6.77256C117.657 6.39923 117.891 6.07256 118.04 5.79256L118.18 5.93256L118.488 5.79256L118.628 5.73656L119.552 5.31656L121.708 5.42856V5.62456L122.38 5.76456C122.809 5.76456 123.089 5.90456 123.22 6.18456C123.22 6.12856 123.229 6.06323 123.248 5.98856C123.248 5.93256 123.248 5.89523 123.248 5.87656L123.836 6.40856L124.368 6.52056L125.376 6.26856L125.74 6.96856L126.16 7.13656ZM123.5 8.59256L123.388 8.39656L123.164 8.34056L122.296 7.64056L121.736 7.55656H121.288L121.232 7.50056L121.008 7.58456L120.756 7.44456H120.028L120.112 7.55656L119.468 7.78056L119.356 7.92056L119.272 7.94856C118.936 8.22856 118.703 8.4619 118.572 8.64856L118.376 9.32056L118.264 9.57256L118.544 9.96456L118.068 10.3286L118.124 10.4406C117.919 10.7952 117.816 11.1406 117.816 11.4766L117.592 11.7566V12.2606L117.368 12.5126L117.312 12.7646L117.228 12.8206V13.2126L117.144 13.3526C117.144 13.5766 117.125 13.7539 117.088 13.8846L117.144 14.0246L116.892 14.5566L117.004 14.7246L116.808 15.0046L117.004 15.5366L116.696 15.9286L116.752 16.4606V16.5446L116.864 16.6006L117.004 16.5726C117.097 16.4792 117.191 16.3952 117.284 16.3206L117.228 16.0966L117.62 16.0406L117.704 15.8446L119.356 14.5006L119.524 14.4446L119.72 13.9686C119.832 13.9312 119.991 13.8566 120.196 13.7446L120.364 13.2966H120.588L120.504 12.8206L120.896 12.7646C120.933 12.6899 120.989 12.5966 121.064 12.4846C121.157 12.3726 121.251 12.2699 121.344 12.1766L122.772 10.2726L122.996 9.85256L122.968 9.74056L123.164 9.43256L123.22 9.12456L123.472 8.90056L123.5 8.59256ZM136.566 11.0006L135.614 11.4766L134.606 11.6446L134.522 11.5326L134.354 11.5606L134.466 11.9246L133.878 12.1486L133.738 12.6246L133.878 13.1006L133.598 13.6326L133.654 13.9126L133.542 14.3046L133.71 15.1166L133.514 15.3126L133.542 15.8166L133.346 16.5726L133.486 17.1886L133.262 17.6366L133.206 18.1686L133.262 18.7286L132.926 18.9526L132.786 19.4846L132.45 19.6806C132.45 19.6806 132.32 19.8112 132.058 20.0726L131.862 20.5486L131.078 20.7726L130.49 20.8566L129.706 20.9966L129.454 20.9406L129.09 21.2206L128.306 21.0246L127.914 20.3526L128.138 19.2886L128.922 18.8966L129.482 19.0646L129.846 18.9526L130.042 19.0366L130.686 18.9526L130.77 18.9246L130.826 18.6166L131.19 18.3366L131.302 18.1126L131.274 17.6646L131.498 17.1886L131.414 16.3766L131.638 15.6206L131.526 14.5846L131.722 14.5006V14.1646L131.61 13.2686L131.722 12.9886L131.61 12.5966L131.666 12.5126L131.526 12.3726L131.89 11.5606L131.974 11.4206L131.778 11.0566L132.31 10.7206L132.142 10.5526L131.918 9.99256L131.89 9.37656L131.974 8.98456L131.778 8.39656L132.002 8.03256L132.114 7.61256L131.862 6.99656L131.946 6.63256L132.002 5.93256L132.058 5.84856L131.946 5.54056L131.89 5.00856L131.834 4.33656L131.862 4.11256L131.638 3.52456L131.722 3.10456L131.638 2.88056L131.246 2.90856L131.19 2.68456L130.602 2.32056L130.294 2.23656L129.986 2.18056L129.538 2.46056L129.426 2.37656L129.006 2.29256L128.474 2.54456L127.774 1.62056L127.942 0.920562L128.614 0.276561H129.174L129.23 0.220562L130.154 0.276561L130.434 0.360562L130.742 0.276561L131.638 0.612562L131.778 0.836561H132.142L132.618 1.17256L133.402 1.78856L133.738 2.85256L133.654 3.18856C133.748 3.3939 133.794 3.62723 133.794 3.88856C133.794 4.07523 133.776 4.20589 133.738 4.28056L133.822 4.61656L134.102 5.00856L133.934 5.68056L134.074 6.43656L133.99 7.02456V7.33256L134.13 7.75256L133.962 8.22856L133.934 8.45256L134.102 8.90056L133.934 9.37656L134.074 9.57256L134.214 9.68456L134.438 9.57256L134.522 9.65656L135.082 9.68456L136.174 9.90856L136.566 11.0006Z" fill="white" fill-opacity="0.4"/>
</svg>
