<svg width="25" height="26" viewBox="0 0 25 26" fill="none" xmlns="http://www.w3.org/2000/svg">
<g clip-path="url(#clip0_91_7066)">
<path d="M3.90648 1.03516C3.90648 0.827956 3.98879 0.629242 4.1353 0.482729C4.28181 0.336216 4.48053 0.253906 4.68773 0.253906L20.3127 0.253906C20.5199 0.253906 20.7186 0.336216 20.8652 0.482729C21.0117 0.629242 21.094 0.827956 21.094 1.03516C21.094 1.87578 21.0752 2.67578 21.0409 3.43516C21.6582 3.53739 22.2489 3.76222 22.778 4.09638C23.3072 4.43053 23.764 4.86726 24.1217 5.38079C24.4793 5.89433 24.7305 6.47428 24.8604 7.08645C24.9904 7.69861 24.9964 8.3306 24.8782 8.94514C24.76 9.55967 24.5199 10.1443 24.1721 10.6646C23.8244 11.1849 23.3759 11.6302 22.8533 11.9744C22.3307 12.3187 21.7444 12.5547 21.1291 12.6687C20.5137 12.7827 19.8818 12.7724 19.2705 12.6383C18.0362 15.5523 16.3362 16.9773 14.844 17.343V20.7383L17.0705 21.2945C17.3737 21.3695 17.6596 21.5055 17.9096 21.693L20.7815 23.8477C20.9127 23.946 21.0096 24.0832 21.0584 24.2397C21.1073 24.3962 21.1057 24.5642 21.0539 24.7197C21.002 24.8753 20.9026 25.0106 20.7695 25.1064C20.6365 25.2023 20.4767 25.2539 20.3127 25.2539H4.68773C4.52376 25.2539 4.36394 25.2023 4.23092 25.1064C4.0979 25.0106 3.99842 24.8753 3.94657 24.7197C3.89472 24.5642 3.89312 24.3962 3.94201 24.2397C3.9909 24.0832 4.0878 23.946 4.21898 23.8477L7.09085 21.693C7.34085 21.5055 7.62679 21.3695 7.92991 21.2945L10.1565 20.7383V17.343C8.66429 16.9773 6.96429 15.5523 5.72991 12.6367C5.11833 12.7716 4.48593 12.7825 3.87006 12.6688C3.25418 12.5552 2.66733 12.3193 2.14415 11.975C1.62098 11.6308 1.17208 11.1852 0.823986 10.6646C0.47589 10.144 0.235647 9.55886 0.117448 8.94385C-0.000752244 8.32883 0.00548716 7.69637 0.135797 7.08381C0.266108 6.47124 0.517846 5.891 0.876146 5.37735C1.23445 4.8637 1.69204 4.42706 2.22191 4.09321C2.75178 3.75936 3.34317 3.53507 3.96116 3.43359C3.92438 2.63465 3.90615 1.83495 3.90648 1.03516ZM4.06116 5.00391C3.24583 5.15309 2.52315 5.62005 2.05212 6.30207C1.58108 6.98409 1.40026 7.82529 1.54945 8.64062C1.69863 9.45596 2.16559 10.1786 2.84761 10.6497C3.52963 11.1207 4.37083 11.3015 5.18616 11.1523C4.66585 9.51172 4.26741 7.48672 4.06116 5.00391ZM19.8159 11.1523C20.6312 11.3015 21.4724 11.1207 22.1544 10.6497C22.8364 10.1786 23.3034 9.45596 23.4526 8.64062C23.6018 7.82529 23.4209 6.98409 22.9499 6.30207C22.4789 5.62005 21.7562 5.15309 20.9409 5.00391C20.733 7.48828 20.3346 9.51172 19.8159 11.1523Z" fill="#D4AF37"/>
<path d="M12.1655 12.2539V6.98391L10.9155 7.32391V6.10391L12.8255 5.25391H13.7255V12.2539H12.1655Z" fill="black"/>
</g>
<defs>
<clipPath id="clip0_91_7066">
<rect width="25" height="25" fill="white" transform="translate(0 0.253906)"/>
</clipPath>
</defs>
</svg>
