<svg width="31" height="17" viewBox="0 0 31 17" fill="none" xmlns="http://www.w3.org/2000/svg">
<circle cx="1.3964" cy="1.3964" r="1.3964" transform="matrix(-1 0 0 1 5.72559 0)" fill="black"/>
<circle cx="1.46622" cy="1.46622" r="1.46622" transform="matrix(-1 0 0 1 2.93262 4.04935)" fill="black"/>
<circle cx="1.46622" cy="1.46622" r="1.46622" transform="matrix(-1 0 0 1 2.93262 8.65765)" fill="black"/>
<circle cx="1.3964" cy="1.3964" r="1.3964" transform="matrix(-1 0 0 1 5.72559 13.2659)" fill="black"/>
<path d="M17.1758 3.77062V7.29618V12.2899C17.1758 12.3976 17.2926 12.4647 17.3856 12.4106L24.6501 8.18396C24.7423 8.13032 24.7428 7.99731 24.6509 7.94304L17.3865 3.6504C17.2934 3.5954 17.1758 3.6625 17.1758 3.77062Z" fill="black" stroke="black" stroke-width="1.53604"/>
<path d="M6.28418 6.80736C5.59009 6.80736 5.02742 7.37003 5.02742 8.06412C5.02742 8.75821 5.59009 9.32087 6.28418 9.32087V6.80736ZM17.1063 6.80736H6.28418V9.32087H17.1063V6.80736Z" fill="black"/>
<circle cx="26.8105" cy="1.53586" r="1.3964" fill="black"/>
<circle cx="29.6034" cy="5.58533" r="1.3964" fill="black"/>
<circle cx="29.6034" cy="10.054" r="1.3964" fill="black"/>
<circle cx="26.8105" cy="14.5227" r="1.3964" fill="black"/>
</svg>
