<svg width="31" height="17" viewBox="0 0 31 17" fill="none" xmlns="http://www.w3.org/2000/svg">
<circle cx="1.3964" cy="1.3964" r="1.3964" transform="matrix(-1 0 0 1 5.72559 0.470703)" fill="white"/>
<circle cx="1.46622" cy="1.46622" r="1.46622" transform="matrix(-1 0 0 1 2.93262 4.52002)" fill="white"/>
<circle cx="1.46622" cy="1.46622" r="1.46622" transform="matrix(-1 0 0 1 2.93262 9.12842)" fill="white"/>
<circle cx="1.3964" cy="1.3964" r="1.3964" transform="matrix(-1 0 0 1 5.72559 13.7366)" fill="white"/>
<path d="M17.1758 4.24129V7.76685V12.7605C17.1758 12.8682 17.2926 12.9354 17.3856 12.8812L24.6501 8.65463C24.7423 8.60099 24.7428 8.46798 24.6509 8.41372L17.3865 4.12107C17.2934 4.06607 17.1758 4.13317 17.1758 4.24129Z" fill="white" stroke="white" stroke-width="1.53604"/>
<path d="M6.28418 7.27816C5.59009 7.27816 5.02742 7.84082 5.02742 8.53491C5.02742 9.229 5.59009 9.79167 6.28418 9.79167V7.27816ZM17.1063 7.27816H6.28418V9.79167H17.1063V7.27816Z" fill="white"/>
<circle cx="26.8105" cy="2.0065" r="1.3964" fill="white"/>
<circle cx="29.6034" cy="6.05606" r="1.3964" fill="white"/>
<circle cx="29.6034" cy="10.5246" r="1.3964" fill="white"/>
<circle cx="26.8105" cy="14.9933" r="1.3964" fill="white"/>
</svg>
