<svg width="24" height="25" viewBox="0 0 24 25" fill="none" xmlns="http://www.w3.org/2000/svg">
<path d="M23 4.91846V10.9185H17" stroke="white" stroke-width="2" stroke-linecap="round" stroke-linejoin="round"/>
<path d="M1 20.9185V14.9185H7" stroke="white" stroke-width="2" stroke-linecap="round" stroke-linejoin="round"/>
<path d="M3.51 9.91853C4.01717 8.48532 4.87913 7.20394 6.01547 6.19395C7.1518 5.18397 8.52547 4.4783 10.0083 4.14279C11.4911 3.80728 13.0348 3.85287 14.4952 4.27531C15.9556 4.69774 17.2853 5.48325 18.36 6.55853L23 10.9185M1 14.9185L5.64 19.2785C6.71475 20.3538 8.04437 21.1393 9.50481 21.5618C10.9652 21.9842 12.5089 22.0298 13.9917 21.6943C15.4745 21.3588 16.8482 20.6531 17.9845 19.6431C19.1209 18.6331 19.9828 17.3517 20.49 15.9185" stroke="white" stroke-width="2" stroke-linecap="round" stroke-linejoin="round"/>
</svg>
