<svg width="25" height="25" viewBox="0 0 25 25" fill="none" xmlns="http://www.w3.org/2000/svg">
<g clip-path="url(#clip0_91_7114)">
<path d="M3.90648 0.78125C3.90648 0.57405 3.98879 0.375336 4.1353 0.228823C4.28181 0.08231 4.48053 0 4.68773 0L20.3127 0C20.5199 0 20.7186 0.08231 20.8652 0.228823C21.0117 0.375336 21.094 0.57405 21.094 0.78125C21.094 1.62187 21.0752 2.42188 21.0409 3.18125C21.6582 3.28349 22.2489 3.50831 22.778 3.84247C23.3072 4.17663 23.764 4.61335 24.1217 5.12689C24.4793 5.64042 24.7305 6.22038 24.8604 6.83254C24.9904 7.44471 24.9964 8.07669 24.8782 8.69123C24.76 9.30577 24.5199 9.89041 24.1721 10.4107C23.8244 10.931 23.3759 11.3763 22.8533 11.7205C22.3307 12.0647 21.7444 12.3008 21.1291 12.4148C20.5137 12.5288 19.8818 12.5185 19.2705 12.3844C18.0362 15.2984 16.3362 16.7234 14.844 17.0891V20.4844L17.0705 21.0406C17.3737 21.1156 17.6596 21.2516 17.9096 21.4391L20.7815 23.5938C20.9127 23.6921 21.0096 23.8293 21.0584 23.9858C21.1073 24.1423 21.1057 24.3102 21.0539 24.4658C21.002 24.6214 20.9026 24.7567 20.7695 24.8525C20.6365 24.9484 20.4767 25 20.3127 25H4.68773C4.52376 25 4.36394 24.9484 4.23092 24.8525C4.0979 24.7567 3.99842 24.6214 3.94657 24.4658C3.89472 24.3102 3.89312 24.1423 3.94201 23.9858C3.9909 23.8293 4.0878 23.6921 4.21898 23.5938L7.09085 21.4391C7.34085 21.2516 7.62679 21.1156 7.92991 21.0406L10.1565 20.4844V17.0891C8.66429 16.7234 6.96429 15.2984 5.72991 12.3828C5.11833 12.5176 4.48593 12.5286 3.87006 12.4149C3.25418 12.3013 2.66733 12.0654 2.14415 11.7211C1.62098 11.3769 1.17208 10.9313 0.823986 10.4107C0.47589 9.89005 0.235647 9.30496 0.117448 8.68994C-0.000752244 8.07493 0.00548716 7.44246 0.135797 6.8299C0.266108 6.21734 0.517846 5.63709 0.876146 5.12345C1.23445 4.6098 1.69204 4.17315 2.22191 3.8393C2.75178 3.50545 3.34317 3.28117 3.96116 3.17969C3.92438 2.38074 3.90615 1.58104 3.90648 0.78125ZM4.06116 4.75C3.24583 4.89918 2.52315 5.36615 2.05212 6.04817C1.58108 6.73018 1.40026 7.57138 1.54945 8.38672C1.69863 9.20205 2.16559 9.92473 2.84761 10.3958C3.52963 10.8668 4.37083 11.0476 5.18616 10.8984C4.66585 9.25781 4.26741 7.23281 4.06116 4.75ZM19.8159 10.8984C20.6312 11.0476 21.4724 10.8668 22.1544 10.3958C22.8364 9.92473 23.3034 9.20205 23.4526 8.38672C23.6018 7.57138 23.4209 6.73018 22.9499 6.04817C22.4789 5.36615 21.7562 4.89918 20.9409 4.75C20.733 7.23438 20.3346 9.25781 19.8159 10.8984Z" fill="#FF6E04" fill-opacity="0.65"/>
<path d="M12.4829 12.12C12.0229 12.12 11.5996 12.0367 11.2129 11.87C10.8329 11.7033 10.5262 11.45 10.2929 11.11C10.0662 10.7633 9.94622 10.3233 9.93289 9.79H11.3929C11.3996 9.99667 11.4462 10.1833 11.5329 10.35C11.6196 10.51 11.7429 10.6367 11.9029 10.73C12.0629 10.8233 12.2562 10.87 12.4829 10.87C12.6896 10.87 12.8662 10.83 13.0129 10.75C13.1662 10.6633 13.2796 10.5533 13.3529 10.42C13.4329 10.28 13.4729 10.12 13.4729 9.94C13.4729 9.73333 13.4229 9.56 13.3229 9.42C13.2229 9.27333 13.0796 9.16333 12.8929 9.09C12.7062 9.01 12.4896 8.97 12.2429 8.97H11.7229V7.75H12.2429C12.5296 7.75 12.7796 7.68333 12.9929 7.55C13.2062 7.41 13.3129 7.19667 13.3129 6.91C13.3129 6.67 13.2362 6.48333 13.0829 6.35C12.9296 6.21 12.7262 6.14 12.4729 6.14C12.1662 6.14 11.9329 6.23 11.7729 6.41C11.6129 6.58333 11.5229 6.79333 11.5029 7.04H10.0529C10.0729 6.58667 10.1862 6.2 10.3929 5.88C10.5996 5.55333 10.8796 5.30667 11.2329 5.14C11.5929 4.96667 12.0062 4.88 12.4729 4.88C12.9662 4.88 13.3862 4.96667 13.7329 5.14C14.0796 5.31333 14.3396 5.54667 14.5129 5.84C14.6929 6.12667 14.7829 6.44 14.7829 6.78C14.7829 7.06667 14.7296 7.31667 14.6229 7.53C14.5162 7.73667 14.3762 7.91 14.2029 8.05C14.0296 8.18333 13.8462 8.28 13.6529 8.34C13.9129 8.39333 14.1362 8.49667 14.3229 8.65C14.5162 8.79667 14.6662 8.98667 14.7729 9.22C14.8796 9.44667 14.9329 9.70667 14.9329 10C14.9329 10.3867 14.8362 10.7433 14.6429 11.07C14.4562 11.39 14.1796 11.6467 13.8129 11.84C13.4529 12.0267 13.0096 12.12 12.4829 12.12Z" fill="black"/>
</g>
<defs>
<clipPath id="clip0_91_7114">
<rect width="25" height="25" fill="white"/>
</clipPath>
</defs>
</svg>
