<svg width="25" height="26" viewBox="0 0 25 26" fill="none" xmlns="http://www.w3.org/2000/svg">
<g clip-path="url(#clip0_91_7106)">
<path d="M3.90648 1.36816C3.90648 1.16096 3.98879 0.96225 4.1353 0.815737C4.28181 0.669224 4.48053 0.586914 4.68773 0.586914H20.3127C20.5199 0.586914 20.7186 0.669224 20.8652 0.815737C21.0117 0.96225 21.094 1.16096 21.094 1.36816C21.094 2.20879 21.0752 3.00879 21.0409 3.76816C21.6582 3.8704 22.2489 4.09523 22.778 4.42938C23.3072 4.76354 23.764 5.20027 24.1217 5.7138C24.4793 6.22734 24.7305 6.80729 24.8604 7.41946C24.9904 8.03162 24.9964 8.66361 24.8782 9.27814C24.76 9.89268 24.5199 10.4773 24.1721 10.9976C23.8244 11.5179 23.3759 11.9632 22.8533 12.3075C22.3307 12.6517 21.7444 12.8877 21.1291 13.0017C20.5137 13.1158 19.8818 13.1054 19.2705 12.9713C18.0362 15.8854 16.3362 17.3104 14.844 17.676V21.0713L17.0705 21.6275C17.3737 21.7025 17.6596 21.8385 17.9096 22.026L20.7815 24.1807C20.9127 24.279 21.0096 24.4162 21.0584 24.5727C21.1073 24.7292 21.1057 24.8972 21.0539 25.0527C21.002 25.2083 20.9026 25.3436 20.7695 25.4394C20.6365 25.5353 20.4767 25.5869 20.3127 25.5869H4.68773C4.52376 25.5869 4.36394 25.5353 4.23092 25.4394C4.0979 25.3436 3.99842 25.2083 3.94657 25.0527C3.89472 24.8972 3.89312 24.7292 3.94201 24.5727C3.9909 24.4162 4.0878 24.279 4.21898 24.1807L7.09085 22.026C7.34085 21.8385 7.62679 21.7025 7.92991 21.6275L10.1565 21.0713V17.676C8.66429 17.3104 6.96429 15.8854 5.72991 12.9697C5.11833 13.1046 4.48593 13.1155 3.87006 13.0018C3.25418 12.8882 2.66733 12.6523 2.14415 12.308C1.62098 11.9638 1.17208 11.5182 0.823986 10.9976C0.47589 10.477 0.235647 9.89187 0.117448 9.27686C-0.000752244 8.66184 0.00548716 8.02938 0.135797 7.41681C0.266108 6.80425 0.517846 6.22401 0.876146 5.71036C1.23445 5.19671 1.69204 4.76007 2.22191 4.42622C2.75178 4.09237 3.34317 3.86808 3.96116 3.7666C3.92438 2.96765 3.90615 2.16796 3.90648 1.36816ZM4.06116 5.33691C3.24583 5.4861 2.52315 5.95306 2.05212 6.63508C1.58108 7.3171 1.40026 8.1583 1.54945 8.97363C1.69863 9.78897 2.16559 10.5116 2.84761 10.9827C3.52963 11.4537 4.37083 11.6345 5.18616 11.4854C4.66585 9.84473 4.26741 7.81973 4.06116 5.33691ZM19.8159 11.4854C20.6312 11.6345 21.4724 11.4537 22.1544 10.9827C22.8364 10.5116 23.3034 9.78897 23.4526 8.97363C23.6018 8.1583 23.4209 7.3171 22.9499 6.63508C22.4789 5.95306 21.7562 5.4861 20.9409 5.33691C20.733 7.82129 20.3346 9.84473 19.8159 11.4854Z" fill="#C0C0C0"/>
<path d="M10.0794 12.5869V11.4769C10.486 11.1436 10.886 10.8136 11.2794 10.4869C11.6794 10.1602 12.036 9.83691 12.3494 9.51691C12.6694 9.19025 12.9227 8.87358 13.1094 8.56691C13.296 8.25358 13.3894 7.95358 13.3894 7.66691C13.3894 7.50025 13.356 7.34691 13.2894 7.20691C13.2294 7.06025 13.1327 6.94691 12.9994 6.86691C12.8727 6.78025 12.7027 6.73691 12.4894 6.73691C12.2827 6.73691 12.106 6.78358 11.9594 6.87691C11.8127 6.97025 11.7027 7.10025 11.6294 7.26691C11.556 7.42691 11.5194 7.61358 11.5194 7.82691H10.0694C10.0894 7.29358 10.2094 6.85025 10.4294 6.49691C10.6494 6.14358 10.9427 5.88358 11.3094 5.71691C11.6827 5.55025 12.0927 5.46691 12.5394 5.46691C13.0594 5.46691 13.4927 5.56358 13.8394 5.75691C14.186 5.94358 14.446 6.19691 14.6194 6.51691C14.7994 6.83025 14.8894 7.18025 14.8894 7.56691C14.8894 7.87358 14.836 8.17025 14.7294 8.45691C14.6227 8.73691 14.476 9.01025 14.2894 9.27691C14.1027 9.53691 13.8894 9.79025 13.6494 10.0369C13.416 10.2769 13.1694 10.5102 12.9094 10.7369C12.6494 10.9569 12.3927 11.1669 12.1394 11.3669H15.0294V12.5869H10.0794Z" fill="black"/>
</g>
<defs>
<clipPath id="clip0_91_7106">
<rect width="25" height="25" fill="white" transform="translate(0 0.586914)"/>
</clipPath>
</defs>
</svg>
