<svg width="64" height="64" viewBox="0 0 64 64" fill="none" xmlns="http://www.w3.org/2000/svg">
<rect width="64" height="64" rx="10" fill="black"/>
<g clip-path="url(#clip0_85_13682)">
<path d="M45.9172 42.8055L34.9492 31.8374L45.9172 20.8695L48.3491 23.3112L41.5458 30.1145H54.0005V33.5605H41.5458L48.3491 40.3638L45.9172 42.8055Z" fill="white"/>
<path d="M33.5606 54.0001H30.1146V41.5454L23.3113 48.3487L20.8696 45.9168L31.8376 34.9488L42.8056 45.9168L40.3639 48.3487L33.5606 41.5454V54.0001Z" fill="white"/>
<path d="M18.0833 43.1206L15.6415 40.6887L22.4547 33.8854H10V30.4395H22.4547L15.6415 23.6263L18.0833 21.1944L29.0414 32.1625L18.0833 43.1206Z" fill="white"/>
<path d="M32.1624 29.0414L21.1943 18.0833L23.6262 15.6415L30.4394 22.4547V10H33.8853V22.4547L40.6886 15.6415L43.1205 18.0833L32.1624 29.0414Z" fill="white"/>
</g>
<defs>
<clipPath id="clip0_85_13682">
<rect width="44" height="44" fill="white" transform="translate(10 10)"/>
</clipPath>
</defs>
</svg>
